<svg width="8" height="8" viewBox="0 0 8 8" fill="none" xmlns="http://www.w3.org/2000/svg">
<g clip-path="url(#clip0_197_577)">
<path d="M4 7.5C2.07 7.5 0.5 5.93 0.5 4C0.5 2.07 2.07 0.5 4 0.5C5.93 0.5 7.5 2.07 7.5 4C7.5 5.93 5.93 7.5 4 7.5ZM4 1C2.345 1 1 2.345 1 4C1 5.655 2.345 7 4 7C5.655 7 7 5.655 7 4C7 2.345 5.655 1 4 1Z" fill="black"/>
<path d="M4 5.75C3.86 5.75 3.75 5.64 3.75 5.5V2.5C3.75 2.36 3.86 2.25 4 2.25C4.14 2.25 4.25 2.36 4.25 2.5V5.5C4.25 5.64 4.14 5.75 4 5.75Z" fill="black"/>
<path d="M5.5 4.25H2.5C2.36 4.25 2.25 4.14 2.25 4C2.25 3.86 2.36 3.75 2.5 3.75H5.5C5.64 3.75 5.75 3.86 5.75 4C5.75 4.14 5.64 4.25 5.5 4.25Z" fill="black"/>
</g>
<defs>
<clipPath id="clip0_197_577">
<rect width="8" height="8" fill="white"/>
</clipPath>
</defs>
</svg>
