<svg width="19" height="19" viewBox="0 0 19 19" fill="none" xmlns="http://www.w3.org/2000/svg">
<path d="M7.62759 1.15137C3.56099 1.15137 0.264492 1.71899 0.258109 2.41902L0.257812 2.41769V6.46899C0.257812 7.17006 3.55713 7.73591 7.62759 7.73591C11.6977 7.73591 14.9972 7.1665 14.9972 6.46899V2.41769L14.9969 2.41917C14.9905 1.71899 11.6934 1.15137 7.62759 1.15137ZM5.06437 3.61098C5.2706 3.62434 5.48088 3.63601 5.69523 3.64601C5.61002 3.64215 5.52007 3.64007 5.43606 3.63562C5.3084 3.62879 5.18891 3.61899 5.06437 3.61098ZM8.10036 3.68757C7.94242 3.68935 7.78805 3.69306 7.62759 3.69306V3.69277C7.53051 3.69277 7.43833 3.68965 7.34229 3.68905C7.43759 3.68965 7.53125 3.69158 7.62759 3.69158C7.78716 3.69158 7.94331 3.6892 8.10036 3.68757ZM0.257812 7.50509V11.0334C0.257812 11.7351 3.55713 12.3004 7.62759 12.3004C8.59273 12.3004 9.50859 12.2665 10.3525 12.2083C10.994 10.5884 12.5734 9.44234 14.4214 9.44234C14.6168 9.44234 14.8087 9.45645 14.9972 9.48123V7.50509C14.9972 8.20675 11.6977 8.77215 7.62759 8.77215C3.55713 8.77215 0.257812 8.20304 0.257812 7.50509ZM14.4214 9.98221C12.8958 9.98221 11.5787 10.8727 10.9607 12.1622C10.9173 12.2538 10.8774 12.3471 10.8413 12.4418C10.8116 12.5193 10.7831 12.5977 10.7583 12.6772V12.6775C10.7335 12.7583 10.7114 12.8398 10.6919 12.922C10.6877 12.9404 10.6835 12.9589 10.6795 12.9774C10.6607 13.0598 10.6447 13.1427 10.6314 13.2262C10.601 13.4219 10.5858 13.6197 10.5858 13.8178C10.5858 15.1964 11.3131 16.4045 12.4047 17.0805C12.4768 17.125 12.5502 17.1672 12.625 17.207L12.6387 17.2139C12.7061 17.2493 12.7746 17.2826 12.8443 17.314L12.8783 17.3293C13.027 17.3948 13.1804 17.4508 13.3384 17.4975C13.4195 17.5212 13.5014 17.5423 13.5839 17.5607L13.6251 17.5702C13.7047 17.587 13.7853 17.6014 13.8669 17.6132L13.9013 17.6174C13.9719 17.627 14.043 17.6346 14.1147 17.6401L14.1704 17.6446C14.2535 17.6497 14.337 17.6535 14.4214 17.6535C15.1856 17.654 15.9324 17.4259 16.5659 16.9986C16.7697 16.8608 16.9598 16.7039 17.1337 16.5299C17.5727 16.0905 17.899 15.5514 18.0846 14.9586C18.1604 14.7148 18.2117 14.464 18.2375 14.21C18.2616 13.9694 18.2631 13.727 18.2419 13.4861C18.2409 13.4741 18.2403 13.4617 18.2389 13.4496C18.2274 13.3296 18.2102 13.2102 18.1874 13.0918C18.169 12.9956 18.1468 12.9002 18.1211 12.8056C18.1156 12.7862 18.11 12.7668 18.1043 12.7475C18.0771 12.6532 18.0464 12.5601 18.0121 12.4682L17.9961 12.428C17.9594 12.3329 17.919 12.2393 17.875 12.1475C17.8714 12.1408 17.8679 12.1341 17.8646 12.1273C17.8193 12.0351 17.7703 11.9448 17.7178 11.8565L17.7093 11.8423C17.656 11.7541 17.5991 11.6682 17.5389 11.5846L17.5192 11.5564C17.4611 11.4772 17.4 11.4003 17.336 11.3257C17.3245 11.3124 17.3129 11.2991 17.3011 11.2859C17.2373 11.213 17.1707 11.1426 17.1015 11.0749L17.0698 11.0452C16.9975 10.9756 16.9224 10.9089 16.8448 10.8452L16.8266 10.8308C16.7467 10.7663 16.6643 10.705 16.5796 10.6471C16.5756 10.6441 16.5716 10.6413 16.5677 10.6386L16.5659 10.6374C16.4814 10.5808 16.3948 10.5275 16.3061 10.4777L16.2732 10.4585C16.1719 10.4029 16.0682 10.3518 15.9624 10.3055C15.8733 10.2662 15.7824 10.2303 15.6898 10.1979C15.6727 10.192 15.6555 10.1862 15.6382 10.1805C15.5446 10.149 15.4498 10.1212 15.3541 10.097C15.3389 10.0932 15.3233 10.0903 15.308 10.0866C15.2058 10.062 15.1026 10.0416 14.9987 10.0254L14.9972 10.0251C14.8066 9.99645 14.6142 9.98211 14.4214 9.98221ZM13.0703 11.6023L16.637 13.6612L13.0703 15.7202V11.6023ZM0.257812 12.0701V16.121C0.257812 16.8225 3.55713 17.3879 7.62759 17.3879C9.10899 17.3879 10.4681 17.3083 11.6191 17.1783C10.6575 16.3756 10.0455 15.1683 10.0455 13.8177C10.046 13.6321 10.0581 13.4466 10.0817 13.2625C9.2646 13.3121 8.44619 13.3368 7.62759 13.3366C3.55713 13.3366 0.257812 12.7678 0.257812 12.0701Z" fill="black"/>
</svg>
