<svg width="10" height="9" viewBox="0 0 10 9" fill="none" xmlns="http://www.w3.org/2000/svg">
<path d="M4.73514 5.33333L4.35807 5.7104L4.73514 6.08747L5.11221 5.7104L4.73514 5.33333ZM5.26847 0.533333C5.26847 0.391885 5.21228 0.256229 5.11226 0.15621C5.01224 0.0561904 4.87659 0 4.73514 0C4.59369 0 4.45804 0.0561904 4.35802 0.15621C4.258 0.256229 4.20181 0.391885 4.20181 0.533333H5.26847ZM1.69141 3.04373L4.35807 5.7104L5.11221 4.95627L2.44554 2.2896L1.69141 3.04373ZM5.11221 5.7104L7.77887 3.04373L7.02474 2.2896L4.35807 4.95627L5.11221 5.7104ZM5.26847 5.33333V0.533333H4.20181V5.33333H5.26847Z" fill="white"/>
<path d="M1 6.40039V6.93372C1 7.21662 1.11238 7.48793 1.31242 7.68797C1.51246 7.88801 1.78377 8.00039 2.06667 8.00039H7.4C7.6829 8.00039 7.95421 7.88801 8.15425 7.68797C8.35428 7.48793 8.46667 7.21662 8.46667 6.93372V6.40039" stroke="white" stroke-width="2"/>
</svg>
