<svg width="9" height="12" viewBox="0 0 9 12" fill="none" xmlns="http://www.w3.org/2000/svg">
<path d="M1.14047 5.46325C2.21907 5.83538 3.35694 6.01453 4.5 5.99217C5.64309 6.01439 6.78096 5.83509 7.85953 5.46281C8.70145 5.14049 9 4.78227 9 4.57611V3C8.70565 3.19349 8.38987 3.35353 8.05872 3.47704C6.91754 3.87814 5.71197 4.07369 4.5 4.05429C3.28814 4.07333 2.08268 3.8781 0.941283 3.47793C0.609968 3.3544 0.29415 3.19405 0 3V4.57389C0 4.78404 0.299458 5.14049 1.14047 5.46325ZM1.14047 8.43591C1.5215 8.57855 1.91442 8.68847 2.31481 8.76443C3.0348 8.90115 3.76668 8.96842 4.5 8.96527C5.23331 8.96856 5.96519 8.90144 6.68518 8.76488C7.08557 8.6889 7.47849 8.57898 7.85953 8.43636C8.70145 8.11404 9 7.75581 9 7.54966V6.0467C8.75669 6.19041 8.50096 6.3128 8.23577 6.41246C7.03693 6.82911 5.77155 7.03079 4.5 7.00788C3.22831 7.03008 1.96292 6.82764 0.764228 6.41025C0.499152 6.31033 0.243443 6.18795 0 6.04448V7.54877C0 7.75537 0.299458 8.11227 1.14047 8.43591ZM4.5 12C6.98419 12 9 11.2268 9 10.2736V9.01581C8.77866 9.14678 8.54678 9.25977 8.30668 9.35365L8.23577 9.38158C7.03717 9.79945 5.77177 10.0023 4.5 9.98054C3.22818 10.003 1.96267 9.80006 0.764228 9.38158C0.739837 9.37271 0.71635 9.36251 0.693315 9.35365C0.453218 9.25977 0.221341 9.14678 0 9.01581V10.2736C0 11.2268 2.01581 12 4.5 12Z" fill="#FFDA44"/>
<path d="M4.5 3C6.98528 3 9 2.32843 9 1.5C9 0.671573 6.98528 0 4.5 0C2.01472 0 0 0.671573 0 1.5C0 2.32843 2.01472 3 4.5 3Z" fill="#FFDA44"/>
</svg>
