<svg width="9" height="12" viewBox="0 0 9 12" fill="none" xmlns="http://www.w3.org/2000/svg">
<path d="M5.83934 2.30792H3.15665C3.10423 2.10325 3.09926 1.88932 3.14213 1.68245C3.185 1.47557 3.27458 1.28123 3.40402 1.11425C3.53346 0.94728 3.69934 0.812089 3.88899 0.719003C4.07865 0.625917 4.28707 0.577397 4.49834 0.577148C4.70955 0.577503 4.91789 0.6261 5.10746 0.719231C5.29703 0.812362 5.46282 0.947567 5.59218 1.11453C5.72154 1.28149 5.81106 1.47579 5.85389 1.68262C5.89672 1.88944 5.89175 2.10331 5.83934 2.30792Z" fill="#862B0D"/>
<path d="M0.692308 2.99985C0.508696 2.99985 0.332605 2.92691 0.202772 2.79708C0.0729393 2.66724 0 2.49115 0 2.30754C0 2.12393 0.0729393 1.94784 0.202772 1.81801C0.332605 1.68817 0.508696 1.61523 0.692308 1.61523H8.30769C8.4913 1.61523 8.6674 1.68817 8.79723 1.81801C8.92706 1.94784 9 2.12393 9 2.30754C9 2.49115 8.92706 2.66724 8.79723 2.79708C8.6674 2.92691 8.4913 2.99985 8.30769 2.99985H0.692308Z" fill="#862B0D"/>
<path fill-rule="evenodd" clip-rule="evenodd" d="M7.61448 11.9995C7.79809 11.9995 7.97419 11.9266 8.10402 11.7968C8.23385 11.6669 8.30679 11.4909 8.30679 11.3072V4.03801C8.30679 3.8544 8.23385 3.67831 8.10402 3.54848C7.97419 3.41864 7.79809 3.3457 7.61448 3.3457H1.38371C1.2001 3.3457 1.02401 3.41864 0.894179 3.54848C0.764346 3.67831 0.691406 3.8544 0.691406 4.03801V11.3072C0.691406 11.4909 0.764346 11.6669 0.894179 11.7968C1.02401 11.9266 1.2001 11.9995 1.38371 11.9995H7.61448ZM6.22987 5.07647C6.22987 4.98467 6.26634 4.89662 6.33125 4.8317C6.39617 4.76679 6.48422 4.73032 6.57602 4.73032C6.66783 4.73032 6.75587 4.76679 6.82079 4.8317C6.88571 4.89662 6.92218 4.98467 6.92218 5.07647V9.92263C6.92218 10.0144 6.88571 10.1025 6.82079 10.1674C6.75587 10.2323 6.66783 10.2688 6.57602 10.2688C6.48422 10.2688 6.39617 10.2323 6.33125 10.1674C6.26634 10.1025 6.22987 10.0144 6.22987 9.92263V5.07647ZM4.4991 4.73032C4.40729 4.73032 4.31925 4.76679 4.25433 4.8317C4.18941 4.89662 4.15294 4.98467 4.15294 5.07647V9.92263C4.15294 10.0144 4.18941 10.1025 4.25433 10.1674C4.31925 10.2323 4.40729 10.2688 4.4991 10.2688C4.5909 10.2688 4.67895 10.2323 4.74387 10.1674C4.80878 10.1025 4.84525 10.0144 4.84525 9.92263V5.07647C4.84525 4.98467 4.80878 4.89662 4.74387 4.8317C4.67895 4.76679 4.5909 4.73032 4.4991 4.73032ZM2.07602 5.07647C2.07602 4.98467 2.11249 4.89662 2.17741 4.8317C2.24232 4.76679 2.33037 4.73032 2.42218 4.73032C2.51398 4.73032 2.60203 4.76679 2.66694 4.8317C2.73186 4.89662 2.76833 4.98467 2.76833 5.07647V9.92263C2.76833 10.0144 2.73186 10.1025 2.66694 10.1674C2.60203 10.2323 2.51398 10.2688 2.42218 10.2688C2.33037 10.2688 2.24232 10.2323 2.17741 10.1674C2.11249 10.1025 2.07602 10.0144 2.07602 9.92263V5.07647Z" fill="#862B0D"/>
</svg>
