<svg width="12" height="12" viewBox="0 0 12 12" fill="none" xmlns="http://www.w3.org/2000/svg">
<path d="M5.736 1.52441H2.05244C1.77332 1.52441 1.50563 1.6353 1.30825 1.83267C1.11088 2.03004 1 2.29773 1 2.57686V9.94397C1 10.2231 1.11088 10.4908 1.30825 10.6882C1.50563 10.8855 1.77332 10.9964 2.05244 10.9964H9.41955C9.69868 10.9964 9.96637 10.8855 10.1637 10.6882C10.3611 10.4908 10.472 10.2231 10.472 9.94397V6.26041" stroke="black" stroke-linecap="round" stroke-linejoin="round"/>
<path d="M9.09237 1.32695C9.30171 1.11761 9.58564 1 9.8817 1C10.1778 1 10.4617 1.11761 10.671 1.32695C10.8804 1.5363 10.998 1.82023 10.998 2.11629C10.998 2.41234 10.8804 2.69627 10.671 2.90562L5.7377 7.83895L3.63281 8.36517L4.15903 6.26029L9.09237 1.32695Z" stroke="black" stroke-linecap="round" stroke-linejoin="round"/>
</svg>
