<svg width="11" height="14" viewBox="0 0 11 14" fill="none" xmlns="http://www.w3.org/2000/svg">
<path d="M11 5.13358L10.2345 6.40231L0.949199 1.26873L1.71468 0L4.04175 1.28339L5.08281 1.01205L8.39736 2.84547L8.68058 3.85018L11 5.13358ZM0 12.5333V3.73284H3.881L9.1858 6.66632V12.5333C9.1858 12.9223 9.02451 13.2953 8.73739 13.5704C8.45028 13.8455 8.06087 14 7.65484 14H1.53097C1.12493 14 0.735522 13.8455 0.44841 13.5704C0.161298 13.2953 0 12.9223 0 12.5333ZM1.53097 12.5333H7.65484V7.54636L3.41406 5.19958H1.53097V12.5333Z" fill="black"/>
</svg>
