<svg width="4" height="8" viewBox="0 0 4 8" fill="none" xmlns="http://www.w3.org/2000/svg">
<path d="M0 7.61321C6.13635e-05 7.68973 0.020796 7.76451 0.0595848 7.82811C0.0983737 7.89171 0.153477 7.94128 0.217935 7.97055C0.282394 7.99982 0.353316 8.00749 0.421744 7.99258C0.490172 7.97767 0.553037 7.94085 0.6024 7.88678L3.89677 4.27357C3.96287 4.20098 4 4.10259 4 4C4 3.89741 3.96287 3.79902 3.89677 3.72643L0.6024 0.113217C0.553037 0.059145 0.490172 0.0223298 0.421744 0.00742054C0.353316 -0.0074892 0.282394 0.00017643 0.217935 0.029449C0.153477 0.058722 0.0983737 0.108289 0.0595848 0.17189C0.020796 0.23549 6.13635e-05 0.310272 0 0.386789L0 7.61321Z" fill="black"/>
</svg>
