<svg width="9" height="9" viewBox="0 0 11 11" fill="none" xmlns="http://www.w3.org/2000/svg">
<path d="M5.5 3.58696C5.11147 3.58696 4.73166 3.69915 4.40861 3.90936C4.08555 4.11957 3.83376 4.41835 3.68508 4.76791C3.53639 5.11747 3.49749 5.50212 3.57329 5.87322C3.64909 6.24431 3.83619 6.58518 4.11092 6.85273C4.38565 7.12027 4.73569 7.30247 5.11675 7.37628C5.49782 7.4501 5.89281 7.41222 6.25177 7.26742C6.61072 7.12263 6.91753 6.87743 7.13339 6.56283C7.34924 6.24823 7.46446 5.87836 7.46446 5.5C7.4629 4.99309 7.25543 4.50738 6.88736 4.14895C6.51929 3.79051 6.02053 3.58847 5.5 3.58696ZM9.74126 5.5C9.74024 5.67875 9.72678 5.85723 9.70099 6.03422L10.8966 6.94578C10.9487 6.98765 10.9838 7.04619 10.9956 7.11094C11.0074 7.17569 10.9952 7.24242 10.9612 7.29922L9.83015 9.20078C9.79577 9.25708 9.7421 9.29976 9.6786 9.32132C9.61509 9.34288 9.5458 9.34195 9.48293 9.31867L8.07712 8.76867C7.78439 8.98819 7.46404 9.17037 7.12387 9.31078L6.91367 10.7642C6.90191 10.8293 6.86729 10.8884 6.81574 10.9314C6.76419 10.9744 6.6989 10.9987 6.63104 11H4.36896C4.30233 10.9987 4.23811 10.9755 4.18678 10.9341C4.13544 10.8927 4.10003 10.8356 4.08633 10.7721L3.87613 9.31867C3.53502 9.17989 3.21444 8.99742 2.92288 8.77609L1.51707 9.32609C1.45422 9.34938 1.38496 9.35035 1.32146 9.32883C1.25795 9.30732 1.20427 9.26468 1.16985 9.20843L0.0388124 7.30711C0.00476789 7.25031 -0.00742874 7.18358 0.00440211 7.11883C0.016233 7.05409 0.0513203 6.99555 0.103394 6.95367L1.29901 6.04211C1.27351 5.86245 1.26006 5.68136 1.25874 5.5C1.25976 5.32125 1.27322 5.14277 1.29901 4.96578L0.103394 4.05422C0.0513203 4.01234 0.016233 3.9538 0.00440211 3.88906C-0.00742874 3.82431 0.00476789 3.75758 0.0388124 3.70078L1.16985 1.79922C1.20423 1.74292 1.2579 1.70024 1.32141 1.67868C1.38491 1.65712 1.4542 1.65805 1.51707 1.68133L2.92288 2.23133C3.21561 2.01181 3.53596 1.82963 3.87613 1.68922L4.08633 0.235783C4.09809 0.170679 4.13271 0.111575 4.18426 0.0685693C4.23581 0.0255639 4.3011 0.00132687 4.36896 0H6.63104C6.69767 0.00126297 6.76189 0.0244849 6.81323 0.0658748C6.86456 0.107265 6.89997 0.164378 6.91367 0.227891L7.12387 1.68133C7.46541 1.82001 7.7864 2.00249 8.07835 2.22391L9.48293 1.67391C9.54578 1.65062 9.61504 1.64965 9.67854 1.67116C9.74205 1.69268 9.79573 1.73532 9.83015 1.79157L10.9612 3.69313C10.9952 3.74993 11.0074 3.81666 10.9956 3.88141C10.9838 3.94615 10.9487 4.00469 10.8966 4.04657L9.70099 4.95813C9.72648 5.13771 9.73993 5.31872 9.74126 5.5Z" fill="white"/>
</svg>
