<svg width="14" height="14" viewBox="0 0 14 14" fill="none" xmlns="http://www.w3.org/2000/svg">
<path d="M0.648438 11.6938V8.0738L3.81544 6.7168L6.98244 8.0748V11.6938L3.81544 13.0498L0.648438 11.6938Z" stroke="black" stroke-linecap="round" stroke-linejoin="round"/>
<path d="M0.648438 8.06707L3.81544 9.42407L6.98244 8.06707M3.81544 3.12207L6.98144 4.48007L10.1484 3.12307" stroke="black" stroke-linecap="round" stroke-linejoin="round"/>
<path d="M6.98047 8.06738L10.1475 9.42438L13.3145 8.06738" stroke="black" stroke-linecap="round" stroke-linejoin="round"/>
<path d="M3.81641 9.42628V13.0513M10.1514 9.42628V13.0513M6.98241 4.48028V8.10428M3.81841 6.71528V3.09528L6.98441 1.73828L10.1514 3.09528V6.71528L6.98441 8.07228L3.81841 6.71528ZM6.98241 11.6943V8.07428L10.1494 6.71728L13.3164 8.07528V11.6943L10.1494 13.0503L6.98241 11.6943Z" stroke="black" stroke-linecap="round" stroke-linejoin="round"/>
</svg>
