<svg width="12" height="12" viewBox="0 0 12 12" fill="none" xmlns="http://www.w3.org/2000/svg">
<path fill-rule="evenodd" clip-rule="evenodd" d="M4 2.00025C3.46957 2.00025 2.96086 2.21096 2.58579 2.58604C2.21071 2.96111 2 3.46982 2 4.00025C2 4.53068 2.21071 5.03939 2.58579 5.41446C2.96086 5.78954 3.46957 6.00025 4 6.00025C4.53043 6.00025 5.03914 5.78954 5.41421 5.41446C5.78929 5.03939 6 4.53068 6 4.00025C6 3.46982 5.78929 2.96111 5.41421 2.58604C5.03914 2.21096 4.53043 2.00025 4 2.00025ZM3 6.50025C2.46957 6.50025 1.96086 6.71096 1.58579 7.08604C1.21071 7.46111 1 7.96982 1 8.50025V9.00025C1 9.26547 1.10536 9.51982 1.29289 9.70736C1.48043 9.89489 1.73478 10.0003 2 10.0003H6C6.26522 10.0003 6.51957 9.89489 6.70711 9.70736C6.89464 9.51982 7 9.26547 7 9.00025V8.50025C7 7.96982 6.78929 7.46111 6.41421 7.08604C6.03914 6.71096 5.53043 6.50025 5 6.50025H3ZM6.625 5.45275C6.864 5.02275 7 4.52775 7 4.00025C7.0007 3.4919 6.87163 2.99177 6.625 2.54725C6.90891 2.27862 7.26531 2.09906 7.65015 2.03077C8.035 1.96247 8.43142 2.00844 8.79042 2.16299C9.14942 2.31754 9.45527 2.5739 9.67017 2.90038C9.88507 3.22685 9.9996 3.60914 9.9996 4C9.9996 4.39086 9.88507 4.77315 9.67017 5.09963C9.45527 5.4261 9.14942 5.68246 8.79042 5.83701C8.43142 5.99156 8.035 6.03753 7.65015 5.96924C7.26531 5.90095 6.90891 5.72139 6.625 5.45275ZM7.733 10.0003C7.903 9.70625 8.0005 9.36475 8.0005 9.00025V8.50025C8.00152 7.76212 7.72938 7.04971 7.2365 6.50025H9C9.53043 6.50025 10.0391 6.71096 10.4142 7.08604C10.7893 7.46111 11 7.96982 11 8.50025V9.00025C11 9.26547 10.8946 9.51982 10.7071 9.70736C10.5196 9.89489 10.2652 10.0003 10 10.0003H7.733Z" fill="white"/>
</svg>
